<svg width="107" height="99" viewBox="0 0 107 99" fill="none" xmlns="http://www.w3.org/2000/svg">
<path fill-rule="evenodd" clip-rule="evenodd" d="M0 6C0 2.68629 2.68629 0 6 0H101C104.314 0 107 2.68629 107 6V93C107 96.3137 104.314 99 101 99H6C2.68629 99 0 96.3137 0 93V6ZM54.3125 57.9876C53.8861 58.5243 53.42 59.0285 52.9141 59.5C49.7109 62.5 45.0781 64 39.0156 64H29.3125V29.7344H40.0703C45.6641 29.7344 50.0078 31.2109 53.1016 34.1641C53.5357 34.5784 53.9393 35.0159 54.3125 35.4764V29.7344H64.9766C69.8359 29.7344 73.3594 30.4297 75.5469 31.8203C77.75 33.1953 78.8516 35.3906 78.8516 38.4062C78.8516 40.4531 78.3672 42.1328 77.3984 43.4453C76.4453 44.7578 75.1719 45.5469 73.5781 45.8125V46.0469C75.75 46.5312 77.3125 47.4375 78.2656 48.7656C79.2344 50.0938 79.7188 51.8594 79.7188 54.0625C79.7188 57.1875 78.5859 59.625 76.3203 61.375C74.0703 63.125 71.0078 64 67.1328 64H54.3125V57.9876ZM50.1953 46.7266C50.1953 39.3672 46.9453 35.6875 40.4453 35.6875H36.5781V58H39.6953C46.6953 58 50.1953 54.2422 50.1953 46.7266ZM65.7969 43.3047H61.5781V35.6875H65.3984C67.4766 35.6875 68.9922 35.9766 69.9453 36.5547C70.9141 37.1172 71.3984 38.0547 71.3984 39.3672C71.3984 40.7734 70.9531 41.7812 70.0625 42.3906C69.1875 43 67.7656 43.3047 65.7969 43.3047ZM61.5781 58V49.0703H66.0781C70.1406 49.0703 72.1719 50.4922 72.1719 53.3359C72.1719 54.9141 71.6953 56.0859 70.7422 56.8516C69.7891 57.6172 68.3125 58 66.3125 58H61.5781Z" fill="#27A9F8"/>
</svg>
