<svg width="20" height="20" viewBox="0 0 20 20" fill="none" xmlns="http://www.w3.org/2000/svg">
<path fill-rule="evenodd" clip-rule="evenodd" d="M4.36364 12.0791L3.67827 14.7592L1.17326 14.8147C0.424634 13.3602 0 11.6961 0 9.92765C0 8.2176 0.397023 6.60499 1.10077 5.18506H1.10131L3.33147 5.61335L4.30841 7.93541C4.10394 8.55984 3.99249 9.23015 3.99249 9.92765C3.99257 10.6846 4.12348 11.4099 4.36364 12.0791Z" fill="#FBBB00"/>
<path fill-rule="evenodd" clip-rule="evenodd" d="M19.8244 8.14819C19.9397 8.75081 19.9998 9.37315 19.9998 10.0092C19.9998 10.7224 19.9243 11.4181 19.7803 12.0892C19.2916 14.3727 18.0147 16.3667 16.2458 17.7778L16.2452 17.7773L13.3808 17.6322L12.9754 15.121C14.1492 14.4379 15.0665 13.3689 15.5497 12.0892H10.1816V8.14819H15.628H19.8244Z" fill="#518EF8"/>
<path fill-rule="evenodd" clip-rule="evenodd" d="M15.9994 17.7325L15.9999 17.7331C14.3043 19.1514 12.1505 20 9.80578 20C6.03787 20 2.76196 17.8083 1.09082 14.5831L4.29716 11.8518C5.13271 14.1724 7.28387 15.8243 9.80578 15.8243C10.8898 15.8243 11.9053 15.5194 12.7767 14.9871L15.9994 17.7325Z" fill="#28B446"/>
<path fill-rule="evenodd" clip-rule="evenodd" d="M16.3634 2.32502L13.1222 5.00351C12.2102 4.4281 11.1321 4.09569 9.97716 4.09569C7.36921 4.09569 5.15322 5.79034 4.35062 8.14815L1.09125 5.45466H1.0907C2.75585 2.21405 6.11032 0 9.97716 0C12.4048 0 14.6307 0.872869 16.3634 2.32502Z" fill="#F14336"/>
</svg>
